<?xml version="1.0" encoding="utf-8"?>
<!-- Generator: Adobe Illustrator 28.1.0, SVG Export Plug-In . SVG Version: 6.00 Build 0)  -->
<svg version="1.1" id="Layer_1" xmlns="http://www.w3.org/2000/svg" xmlns:xlink="http://www.w3.org/1999/xlink" x="0px" y="0px"
	 viewBox="0 0 513.7 507.1" style="enable-background:new 0 0 513.7 507.1;" xml:space="preserve">
<style type="text/css">
	.st0{fill:none;stroke:url(#SVGID_1_);stroke-miterlimit:10;}
	.st1{fill:none;stroke:url(#SVGID_00000155116878755336271610000000679363582509635215_);stroke-miterlimit:10;}
	.st2{fill:url(#SVGID_00000107552109118274641270000013509301383204866987_);}
	.st3{fill:url(#SVGID_00000037689300231796385120000010508706067709496460_);}
	.st4{fill:url(#SVGID_00000029044963187487515140000003185105876188446874_);}
</style>
<g>
	<linearGradient id="SVGID_1_" gradientUnits="userSpaceOnUse" x1="111.8537" y1="191.8454" x2="111.9066" y2="191.8426">
		<stop  offset="0" style="stop-color:#00649C"/>
		<stop  offset="0.11" style="stop-color:#0875AC"/>
		<stop  offset="0.37" style="stop-color:#1A9ACF"/>
		<stop  offset="0.62" style="stop-color:#28B5E9"/>
		<stop  offset="0.83" style="stop-color:#30C6F9"/>
		<stop  offset="1" style="stop-color:#33CCFF"/>
	</linearGradient>
	<path class="st0" d="M111.9,191.8L111.9,191.8"/>
	
		<linearGradient id="SVGID_00000038397504549320952790000003423808182314716064_" gradientUnits="userSpaceOnUse" x1="152.7695" y1="300.549" x2="152.7695" y2="300.549">
		<stop  offset="0" style="stop-color:#00649C"/>
		<stop  offset="0.11" style="stop-color:#0875AC"/>
		<stop  offset="0.37" style="stop-color:#1A9ACF"/>
		<stop  offset="0.62" style="stop-color:#28B5E9"/>
		<stop  offset="0.83" style="stop-color:#30C6F9"/>
		<stop  offset="1" style="stop-color:#33CCFF"/>
	</linearGradient>
	<path style="fill:none;stroke:url(#SVGID_00000038397504549320952790000003423808182314716064_);stroke-miterlimit:10;" d="
		M152.8,300.5"/>
	
		<linearGradient id="SVGID_00000020395436023906707030000007968099432456440727_" gradientUnits="userSpaceOnUse" x1="198.9819" y1="442.5749" x2="455.0032" y2="288.1158">
		<stop  offset="0" style="stop-color:#00649C"/>
		<stop  offset="0.11" style="stop-color:#0875AC"/>
		<stop  offset="0.37" style="stop-color:#1A9ACF"/>
		<stop  offset="0.62" style="stop-color:#28B5E9"/>
		<stop  offset="0.83" style="stop-color:#30C6F9"/>
		<stop  offset="1" style="stop-color:#33CCFF"/>
	</linearGradient>
	<path style="fill:url(#SVGID_00000020395436023906707030000007968099432456440727_);" d="M495.8,320.7v172.1H323.7
		c-47.5,0-90.6-19.3-121.7-50.4s-50.4-74.2-50.4-121.7c0-6.8,0.4-13.5,1.2-20.1c31.6,39.5,80.1,64.8,134.6,64.8h81.4v-81.4
		c0-54.3-25.1-102.7-64.4-134.2c6.3-0.7,12.8-1.1,19.3-1.1C418.7,148.6,495.8,225.7,495.8,320.7z"/>
	
		<linearGradient id="SVGID_00000147903800236757449340000001382730300633697175_" gradientUnits="userSpaceOnUse" x1="257.4539" y1="-8.8049" x2="141.2803" y2="479.1244">
		<stop  offset="0" style="stop-color:#00649C"/>
		<stop  offset="0.11" style="stop-color:#0875AC"/>
		<stop  offset="0.37" style="stop-color:#1A9ACF"/>
		<stop  offset="0.62" style="stop-color:#28B5E9"/>
		<stop  offset="0.83" style="stop-color:#30C6F9"/>
		<stop  offset="1" style="stop-color:#33CCFF"/>
	</linearGradient>
	<path style="fill:url(#SVGID_00000147903800236757449340000001382730300633697175_);" d="M202,442.4
		c31.1,31.1,74.2,50.4,121.7,50.4H256c-66.2,0-126.2-26.8-169.6-70.2C43,379.2,16.2,319.2,16.2,253C16.2,120.6,123.6,13.2,256,13.2
		c39.3,0,76.4,9.5,109.2,26.2c-23.3-11.4-50.5-18.3-77.8-18.3c-47.5,0-90.6,19.3-121.7,50.4c-31.1,31.1-50.4,74.2-50.4,121.7
		c0,20.3,3.5,39.7,9.9,57.8c6.5,18.1,15.8,34.7,27.6,49.4l0,0c-0.8,6.6-1.2,13.3-1.2,20.1C151.6,368.2,170.9,411.3,202,442.4z"/>
	
		<linearGradient id="SVGID_00000070092805734011921510000012033492768756404634_" gradientUnits="userSpaceOnUse" x1="490.7258" y1="250.2336" x2="133.756" y2="125.6109">
		<stop  offset="0" style="stop-color:#00649C"/>
		<stop  offset="0.11" style="stop-color:#0875AC"/>
		<stop  offset="0.37" style="stop-color:#1A9ACF"/>
		<stop  offset="0.62" style="stop-color:#28B5E9"/>
		<stop  offset="0.83" style="stop-color:#30C6F9"/>
		<stop  offset="1" style="stop-color:#33CCFF"/>
	</linearGradient>
	<path style="fill:url(#SVGID_00000070092805734011921510000012033492768756404634_);" d="M495.8,253v67.7
		c0-95-77.1-172.1-172.1-172.1c-88.2,0-161,66.4-170.9,152l0,0c-11.7-14.7-21.1-31.4-27.6-49.4c-6.4-18.1-9.9-37.5-9.9-57.8
		c0-47.5,19.3-90.6,50.4-121.7c31.1-31.1,74.2-50.4,121.7-50.4c27.3,0,54.5,6.8,77.8,18.3c0.2,0.1,0.3,0.2,0.5,0.2
		C442.9,79.5,495.8,160.1,495.8,253z"/>
</g>
</svg>
